<mxfile host="app.diagrams.net" modified="2021-01-15T08:01:08.293Z" agent="5.0 (X11)" etag="bvxEwJ9EWT-kdAn2UCJF" version="14.2.3" type="github">
  <diagram id="7brx69t6QJX8JPtnT_mQ" name="Page-1">
    <mxGraphModel dx="2370" dy="1338" grid="1" gridSize="10" guides="1" tooltips="1" connect="1" arrows="1" fold="1" page="1" pageScale="1" pageWidth="1654" pageHeight="1169" math="0" shadow="0">
      <root>
        <mxCell id="0" />
        <mxCell id="1" parent="0" />
        <mxCell id="EpcbFn5mmf9s-kOO2u9s-5" style="edgeStyle=orthogonalEdgeStyle;rounded=0;orthogonalLoop=1;jettySize=auto;html=1;" edge="1" parent="1" source="EpcbFn5mmf9s-kOO2u9s-1" target="EpcbFn5mmf9s-kOO2u9s-4">
          <mxGeometry relative="1" as="geometry" />
        </mxCell>
        <mxCell id="EpcbFn5mmf9s-kOO2u9s-1" value="" style="shape=image;html=1;verticalAlign=top;verticalLabelPosition=bottom;labelBackgroundColor=#ffffff;imageAspect=0;aspect=fixed;image=https://cdn3.iconfinder.com/data/icons/social-media-2169/24/social_media_social_media_logo_git-128.png" vertex="1" parent="1">
          <mxGeometry x="160" y="160" width="98" height="98" as="geometry" />
        </mxCell>
        <mxCell id="EpcbFn5mmf9s-kOO2u9s-25" style="edgeStyle=orthogonalEdgeStyle;rounded=0;orthogonalLoop=1;jettySize=auto;html=1;strokeWidth=2;" edge="1" parent="1" source="EpcbFn5mmf9s-kOO2u9s-4" target="EpcbFn5mmf9s-kOO2u9s-23">
          <mxGeometry relative="1" as="geometry" />
        </mxCell>
        <mxCell id="EpcbFn5mmf9s-kOO2u9s-4" value="" style="shape=image;html=1;verticalAlign=top;verticalLabelPosition=bottom;labelBackgroundColor=#ffffff;imageAspect=0;aspect=fixed;image=https://cdn4.iconfinder.com/data/icons/logos-brands-5/24/jenkins-128.png" vertex="1" parent="1">
          <mxGeometry x="360" y="160" width="98" height="98" as="geometry" />
        </mxCell>
        <mxCell id="EpcbFn5mmf9s-kOO2u9s-12" style="edgeStyle=orthogonalEdgeStyle;rounded=0;orthogonalLoop=1;jettySize=auto;html=1;entryX=0.5;entryY=0;entryDx=0;entryDy=0;strokeWidth=2;" edge="1" parent="1" source="EpcbFn5mmf9s-kOO2u9s-8" target="EpcbFn5mmf9s-kOO2u9s-11">
          <mxGeometry relative="1" as="geometry">
            <Array as="points">
              <mxPoint x="270" y="705" />
            </Array>
          </mxGeometry>
        </mxCell>
        <mxCell id="EpcbFn5mmf9s-kOO2u9s-15" value="&lt;font style=&quot;font-size: 20px&quot;&gt;Tag/Release&lt;br&gt;&lt;/font&gt;" style="edgeLabel;html=1;align=center;verticalAlign=middle;resizable=0;points=[];" vertex="1" connectable="0" parent="EpcbFn5mmf9s-kOO2u9s-12">
          <mxGeometry x="-0.128" y="-1" relative="1" as="geometry">
            <mxPoint x="1" y="70.67" as="offset" />
          </mxGeometry>
        </mxCell>
        <mxCell id="EpcbFn5mmf9s-kOO2u9s-17" style="edgeStyle=orthogonalEdgeStyle;rounded=0;orthogonalLoop=1;jettySize=auto;html=1;entryX=0.5;entryY=0;entryDx=0;entryDy=0;strokeWidth=2;" edge="1" parent="1" source="EpcbFn5mmf9s-kOO2u9s-8" target="EpcbFn5mmf9s-kOO2u9s-16">
          <mxGeometry relative="1" as="geometry" />
        </mxCell>
        <mxCell id="EpcbFn5mmf9s-kOO2u9s-18" value="&lt;font style=&quot;font-size: 20px&quot;&gt;Commit&lt;br&gt;&lt;/font&gt;" style="edgeLabel;html=1;align=center;verticalAlign=middle;resizable=0;points=[];" vertex="1" connectable="0" parent="EpcbFn5mmf9s-kOO2u9s-17">
          <mxGeometry x="-0.6137" y="-1" relative="1" as="geometry">
            <mxPoint x="27.669999999999998" y="104" as="offset" />
          </mxGeometry>
        </mxCell>
        <mxCell id="EpcbFn5mmf9s-kOO2u9s-8" value="&lt;font style=&quot;font-size: 20px&quot;&gt;Check Branch/Tag&lt;/font&gt;" style="rhombus;whiteSpace=wrap;html=1;rounded=1;" vertex="1" parent="1">
          <mxGeometry x="344" y="640" width="130" height="130" as="geometry" />
        </mxCell>
        <mxCell id="EpcbFn5mmf9s-kOO2u9s-11" value="&lt;font style=&quot;font-size: 18px&quot;&gt;Build Release&lt;/font&gt;" style="rounded=1;whiteSpace=wrap;html=1;" vertex="1" parent="1">
          <mxGeometry x="210" y="880" width="120" height="60" as="geometry" />
        </mxCell>
        <mxCell id="EpcbFn5mmf9s-kOO2u9s-16" value="&lt;font style=&quot;font-size: 18px&quot;&gt;Build Snapshot&lt;/font&gt;" style="rounded=1;whiteSpace=wrap;html=1;" vertex="1" parent="1">
          <mxGeometry x="490" y="880" width="120" height="60" as="geometry" />
        </mxCell>
        <mxCell id="EpcbFn5mmf9s-kOO2u9s-24" style="edgeStyle=orthogonalEdgeStyle;rounded=0;orthogonalLoop=1;jettySize=auto;html=1;entryX=0.5;entryY=0;entryDx=0;entryDy=0;strokeWidth=2;" edge="1" parent="1" source="EpcbFn5mmf9s-kOO2u9s-23" target="EpcbFn5mmf9s-kOO2u9s-8">
          <mxGeometry relative="1" as="geometry" />
        </mxCell>
        <mxCell id="EpcbFn5mmf9s-kOO2u9s-23" value="&lt;span style=&quot;background-color: rgb(255 , 255 , 255)&quot;&gt;&lt;font style=&quot;font-size: 18px&quot;&gt;legal-catalog&lt;/font&gt;&lt;/span&gt;" style="outlineConnect=0;fontColor=#232F3E;gradientColor=none;fillColor=#D05C17;strokeColor=none;dashed=0;verticalLabelPosition=bottom;verticalAlign=top;align=center;html=1;fontSize=12;fontStyle=0;aspect=fixed;pointerEvents=1;shape=mxgraph.aws4.ecs_task;rounded=1;" vertex="1" parent="1">
          <mxGeometry x="379.5" y="410" width="59" height="78" as="geometry" />
        </mxCell>
      </root>
    </mxGraphModel>
  </diagram>
</mxfile>
